<svg width="780" height="800" viewBox="0 0 780 800" fill="none" xmlns="http://www.w3.org/2000/svg">
<path d="M342.511 269.277C346.477 226.179 361.762 186.383 385.37 152.732C366.17 65.4979 288.332 0 195.447 0C88.2128 0 0.944702 87.2681 0.944702 194.536C0.944702 287.881 67.0553 366.026 154.919 384.732C199.123 324.494 265.762 281.923 342.511 269.277ZM117.643 240.834C117.643 233.753 123.072 228.289 130.17 228.289H170.085V218.962L164.621 209.634H130.153C123.055 209.634 117.626 204.17 117.626 197.089C117.626 190.009 123.055 184.545 130.153 184.545H149.779L107.328 114.757C105.081 110.894 102.834 106.077 102.834 101.566C102.834 83.8809 119.243 78.0936 130.477 78.0936C143.992 78.0936 150.102 88.7149 152.366 93.2085L195.464 175.234L238.528 93.2085C240.826 88.7149 246.902 78.0936 260.383 78.0936C271.651 78.0936 288.043 83.8979 288.043 101.566C288.043 106.077 285.796 110.894 283.566 114.74L241.098 184.545H260.706C267.77 184.545 273.234 190.009 273.234 197.089C273.234 204.17 267.77 209.634 260.706 209.634H226.306L220.843 218.962V228.289H260.723C267.787 228.289 273.251 233.753 273.251 240.834C273.251 247.915 267.787 253.379 260.723 253.379H220.843V285.209C220.843 300.647 211.498 310.945 195.464 310.945C179.379 310.945 170.068 300.647 170.068 285.209V253.379H130.153C123.055 253.379 117.643 247.915 117.643 240.834Z" fill="#F85A40"/>
<path d="M584.536 97.2596C486.34 97.2596 405.115 170.485 392.043 265.157C429.166 265.43 464.536 272.766 497.149 285.702C499.311 280.732 503.77 277.617 510.715 277.617H517.455C510.715 267.966 507.821 255.745 507.821 243.2C507.821 203.336 543.192 175.353 588.536 175.353C644.877 175.353 672.179 205.583 672.179 230.672C672.179 245.157 662.204 253.191 648.043 253.191C619.753 253.191 637.098 213.957 593.694 213.957C574.732 213.957 556.723 225.226 556.723 246.111C556.723 257.055 562.17 267.983 567.328 277.634H602.392C615.566 277.634 622.34 282.468 622.34 293.072C622.34 303.677 615.583 308.494 602.392 308.494H576.962C577.949 311.081 578.613 313.328 578.613 316.221C578.613 321.413 577.319 326.553 575.311 331.574C585.83 340.255 595.532 349.889 604.74 359.949C613.66 361.753 621.609 363.83 631.038 363.83C636.468 363.83 649.728 360.289 654.817 360.289C666.698 360.289 673.472 369.294 673.472 380.851C673.472 398.996 657.234 406.877 640.502 407.966C651.6 426.604 660.843 446.417 667.668 467.37C733.387 436.136 779.072 369.277 779.072 291.762C779.038 184.528 691.77 97.2596 584.536 97.2596Z" fill="#F85A40"/>
<path d="M402.885 580.017V659.608C426.97 658.008 452.332 646.757 452.332 620.221C452.332 592.868 424.536 584.834 402.885 580.017Z" fill="#F85A40"/>
<path d="M333.711 484.749C333.711 504.885 348.604 516.494 378.732 522.553V450.57C351.362 451.404 333.711 467.455 333.711 484.749Z" fill="#F85A40"/>
<path d="M390 313.685C255.923 313.685 146.817 422.774 146.817 556.851C146.817 690.928 255.923 800 390 800C524.077 800 633.2 690.945 633.2 556.851C633.2 422.757 524.077 313.685 390 313.685ZM402.885 700.63V725.566C402.885 732.408 397.608 739.234 390.783 739.234C383.957 739.234 378.732 732.426 378.732 725.566V700.63C310.817 699.03 277.013 658.417 277.013 626.621C277.013 610.587 286.647 601.328 301.932 601.328C346.953 601.328 311.957 656.817 378.732 659.626V575.592C319.191 564.749 283.072 538.621 283.072 493.974C283.072 439.319 328.485 411.166 378.732 409.566V388.153C378.732 381.294 383.957 374.468 390.783 374.468C397.608 374.468 402.885 381.294 402.885 388.153V409.566C434.187 410.4 498.511 430.043 498.511 469.481C498.511 485.157 486.834 494.366 473.183 494.366C447.055 494.366 447.413 451.404 402.902 450.57V526.945C455.974 538.213 502.97 553.872 502.97 615.83C502.97 669.685 462.732 697.038 402.885 700.63Z" fill="#F85A40"/>
</svg>
